<?xml version="1.0" encoding="UTF-8" standalone="no"?>
<!-- Created with Inkscape (http://www.inkscape.org/) -->

<svg
   xmlns:dc="http://purl.org/dc/elements/1.1/"
   xmlns:cc="http://creativecommons.org/ns#"
   xmlns:rdf="http://www.w3.org/1999/02/22-rdf-syntax-ns#"
   xmlns:svg="http://www.w3.org/2000/svg"
   xmlns="http://www.w3.org/2000/svg"
   xmlns:sodipodi="http://sodipodi.sourceforge.net/DTD/sodipodi-0.dtd"
   xmlns:inkscape="http://www.inkscape.org/namespaces/inkscape"
   width="210mm"
   height="297mm"
   viewBox="0 0 210 297"
   version="1.1"
   id="svg46"
   inkscape:version="0.92.3 (2405546, 2018-03-11)"
   sodipodi:docname="logo.svg">
  <defs
     id="defs40" />
  <sodipodi:namedview
     id="base"
     pagecolor="#ffffff"
     bordercolor="#666666"
     borderopacity="1.0"
     inkscape:pageopacity="0.0"
     inkscape:pageshadow="2"
     inkscape:zoom="0.35"
     inkscape:cx="400"
     inkscape:cy="560"
     inkscape:document-units="mm"
     inkscape:current-layer="layer1"
     showgrid="false"
     inkscape:window-width="1366"
     inkscape:window-height="705"
     inkscape:window-x="-8"
     inkscape:window-y="-8"
     inkscape:window-maximized="1" />
  <metadata
     id="metadata43">
    <rdf:RDF>
      <cc:Work
         rdf:about="">
        <dc:format>image/svg+xml</dc:format>
        <dc:type
           rdf:resource="http://purl.org/dc/dcmitype/StillImage" />
        <dc:title></dc:title>
      </cc:Work>
    </rdf:RDF>
  </metadata>
  <g
     inkscape:label="Layer 1"
     inkscape:groupmode="layer"
     id="layer1">
    <path
       style="fill:#008000;stroke-width:0.26458332"
       id="path48"
       d="m 19.666003,195.69378 c 2.311101,-2.10663 4.240398,-4.60452 6.548768,-6.71125 1.966431,-1.79467 4.081722,-3.41911 6.121754,-5.12965 1.345242,-1.07369 2.701449,-2.13379 4.03573,-3.22107 1.392097,-1.1344 2.739942,-2.32284 4.143001,-3.44365 3.852694,-3.07767 5.82707,-4.34098 9.696392,-7.53764 4.63858,-3.83218 6.140765,-5.38021 10.537372,-9.51647 9.532075,-9.18168 18.631797,-18.88805 26.279052,-29.71234 2.347476,-3.14252 3.865417,-6.67213 4.990227,-10.39112 0.374213,-1.33314 0.460454,-2.70655 0.87517,-4.02898 0.836641,-1.45068 1.387694,-2.90608 1.66321,-4.55827 0.343181,-3.1902 0.342326,-6.40895 0.348771,-9.61435 -0.01984,-2.900309 0.04512,-5.803458 -0.09992,-8.701418 -0.61759,-3.867303 -0.258966,-1.075901 9.98483,-4.80827 0.28239,-0.102889 -0.031,0.600633 -0.0292,0.901176 0.0106,1.692082 0.16419,3.387116 0.29438,5.072182 0.82834,5.576398 1.53882,11.1625 2.15358,16.76694 0.57551,4.78303 0.95431,9.58028 1.15251,14.39255 0.0914,4.07809 0.0929,8.15646 0.0929,12.23519 -0.0283,4.01996 -0.002,8.03981 0.005,12.05972 0.0165,2.86258 0.0451,5.72511 0.0498,8.58774 0.0356,2.53891 -0.34806,5.05683 -0.53221,7.58482 -0.13713,2.06374 -0.16856,4.13228 -0.20317,6.19965 0.0557,2.11111 -0.0404,4.20214 -0.30613,6.29549 -0.22208,1.79006 -0.67713,3.53501 -0.92935,5.32161 -1.09841,4.63036 -2.94387,3.35353 -10.603146,6.55252 -0.07772,0.0325 -1.976909,-2.46518 -2.090817,-2.62314 -2.144226,-2.53682 -4.407043,-4.9708 -6.671125,-7.40143 -3.382026,-3.96009 -6.079199,-8.4364 -9.034023,-12.71234 -2.66909,-3.5717 -5.349216,-7.14035 -8.247923,-10.53074 -2.305145,-3.26686 -4.950325,-6.25571 -7.714331,-9.13378 -2.034802,-2.38287 -4.354658,-4.42933 -6.980897,-6.12918 -1.978736,-1.17428 -4.274531,-1.54709 -6.496557,-2.00451 -1.781027,-0.34735 -3.594021,-0.4391 -5.403488,-0.48188 -1.39592,-0.0278 -2.838931,-0.17835 -4.058626,0.60738 16.484094,-9.61146 9.262779,-6.50539 6.786594,-2.51715 -0.724098,1.54271 -1.064305,3.233 -1.573115,4.85505 -0.575037,1.67083 -0.758245,3.41961 -0.862769,5.17178 -0.04141,0.82441 -0.04952,1.64984 -0.05863,2.47505 0,0 -9.967875,5.06595 -9.967875,5.06595 v 0 c 0.0081,-0.84182 0.01545,-1.68378 0.05002,-2.52506 0.08782,-1.82614 0.191919,-3.66991 0.745292,-5.42593 0.525759,-1.66997 0.971124,-3.35608 1.463294,-5.03443 2.281274,-4.93274 7.366283,-6.39289 12.237299,-9.01003 1.423069,-0.31057 2.857143,-0.27737 4.307459,-0.20104 1.840352,0.0909 3.678108,0.26293 5.479391,0.66911 2.316816,0.52401 4.668652,1.03066 6.666497,2.39404 2.630953,1.81765 4.985502,3.92284 7.054133,6.37001 2.750807,2.91804 5.323819,5.98446 7.680137,9.2331 2.863742,3.46397 5.678683,6.96657 8.241522,10.66192 2.869356,4.26645 5.575517,8.68595 9.025946,12.5184 2.323137,2.4433 4.707888,4.83361 6.869018,7.42398 0.62085,0.78845 0.76286,1.05079 1.49812,1.69064 0.0945,0.0823 0.42868,0.12816 0.32206,0.19403 -3.09233,1.91033 -6.320474,3.59229 -9.448338,5.44386 -0.126624,0.075 0.317008,-0.009 0.428852,-0.10469 0.164635,-0.14075 0.227174,-0.36885 0.340763,-0.55328 0.222316,-1.79689 0.626766,-3.5519 0.93768,-5.32929 0.295159,-2.05634 0.512697,-4.0952 0.387575,-6.17907 -5.29e-4,-2.09643 0.05089,-4.19215 0.210323,-6.28335 0.181954,-2.50447 0.528343,-5.00133 0.563343,-7.51034 0.0051,-2.88048 0.03433,-5.76086 0.0539,-8.64127 0.01119,-4.0251 0.04597,-8.05013 0.02638,-12.07533 0.0039,-4.06678 0.01987,-8.13488 -0.07952,-12.20059 -0.121922,-4.81287 -0.401852,-9.6215 -0.942353,-14.40714 -0.626901,-5.59 -1.285687,-11.16739 -2.299441,-16.703573 -0.207229,-1.678593 -0.437494,-3.368582 -0.569243,-5.055838 -0.0227,-0.290719 -0.271208,-0.714584 -0.02729,-0.874387 3.213738,-2.105486 6.645789,-3.860025 10.029999,-5.678901 0.0915,-0.0492 -0.0262,0.206188 -0.0393,0.309283 -0.1257,2.932059 -0.061,5.867548 -0.0828,8.801303 -0.0129,3.225743 0.0432,6.455313 -0.15296,9.677063 -0.17423,1.69432 -0.39324,3.37033 -1.46587,4.76325 -0.62303,1.26501 -0.64739,2.63161 -0.97855,3.98493 -1.23895,3.92616 -2.882534,7.67719 -5.415364,10.96964 -7.958621,10.83016 -17.211423,20.65186 -26.733433,30.11281 -3.916635,3.73407 -6.24019,6.06544 -10.364423,9.5431 -5.302977,4.4716 -4.3235,3.26832 -9.522155,7.43637 -1.389449,1.114 -2.709262,2.31246 -4.084045,3.44451 -1.288828,1.06128 -2.604127,2.09 -3.906192,3.13499 -1.068734,0.92345 -2.123617,1.86317 -3.206202,2.77034 -0.887103,0.74337 -1.834812,1.41411 -2.702031,2.18057 -2.808089,2.48185 -1.33541,1.43413 -3.727593,4.02154 -4.990269,5.39752 1.330132,-1.84096 -2.452507,2.53601 0,0 -10.314895,4.27257 -10.314895,4.27257 z"
       inkscape:connector-curvature="0" />
    <path
       style="fill:#008000;stroke-width:0.26458332"
       id="path54"
       d="m 119.17499,189.02285 c 2.25428,-6.41062 4.32178,-12.88281 6.38512,-19.3567 2.0378,-6.15691 3.90908,-12.35245 5.06488,-18.73731 1.01296,-6.23886 1.22625,-12.55834 1.38298,-18.86387 0.21973,-6.10492 0.0569,-12.1988 -0.31248,-18.29266 -0.12791,-3.3939 -0.4696,-6.76393 -0.84059,-10.13685 -0.14882,-2.08667 -0.66014,-4.122111 -1.37556,-6.081425 -0.6473,-1.652158 -1.38724,-3.264098 -1.97347,-4.940519 -0.43701,-1.60619 -0.70079,-3.203022 -1.36964,-4.733166 -2.21147,-3.873132 -7.68513,2.600095 9.31651,-6.250617 0.1058,-0.05508 0.10688,0.214659 0.17804,0.310383 0.0611,0.08221 0.14368,0.146045 0.21552,0.219067 0.98151,1.041252 1.86423,2.175502 2.81953,3.244395 1.32018,1.109043 2.38243,2.4697 3.54249,3.731466 1.21552,1.366253 2.09817,2.960643 3.04978,4.507476 1.02407,1.712915 1.92157,3.491992 2.89605,5.2329 1.00217,1.72151 1.97465,3.45557 3.01207,5.15519 0.97462,1.20054 1.66046,2.55873 2.31357,3.94883 0.77498,1.51115 1.48663,3.08579 2.46897,4.47756 0.87506,1.19934 1.55794,2.51092 2.26208,3.81284 0.76665,0.94368 1.18842,2.08143 1.69199,3.17237 0.38863,1.23529 1.04214,2.34815 1.56564,3.52351 0.61966,1.2181 1.4492,2.32474 2.18391,3.48002 0.75131,1.31595 1.6983,2.51888 2.62113,3.72044 1.04484,1.01615 1.90951,2.19573 2.75804,3.37598 0.83642,0.8866 0.70829,2.49464 1.77345,3.15287 2.10719,-3.95638 -6.53069,3.3347 -9.05307,4.73999 -0.13555,0.0755 0.23356,-0.20903 0.32068,-0.33743 0.21361,-0.31481 0.58849,-1.19311 0.71949,-1.48299 0.74675,-1.99502 1.41406,-4.02307 2.07726,-6.04927 0.67974,-1.67836 1.21924,-3.38 1.61867,-5.14391 0.47865,-1.73539 1.22895,-3.37637 1.89043,-5.04633 0.63078,-1.55601 1.17974,-3.14282 1.66318,-4.75023 0.56077,-1.59889 1.2233,-3.15613 1.89226,-4.71123 0.96972,-2.20434 1.50894,-4.53024 1.84747,-6.90389 0.37689,-2.93092 0.9978,-5.83578 1.93715,-8.638602 1.13276,-2.152957 2.00171,-4.392311 2.82566,-6.678795 0.79085,-2.8867 1.70983,-5.712013 2.8591,-8.477748 1.23942,-2.589792 2.42097,-5.206701 3.60771,-7.820877 0.5509,-1.407183 1.51859,-2.583727 2.19745,-3.917698 1.70915,-4.812771 0.4941,-2.57493 10.75034,-6.55942 0.27897,-0.108376 0.23662,0.992634 0.23739,1.873429 0.0421,2.202516 -0.5728,4.282467 -1.13651,6.383195 -0.66328,2.028846 -1.07326,4.12047 -1.57826,6.190276 -0.35873,1.635543 -0.64404,3.282003 -1.00826,4.916898 -0.31357,1.857515 -0.50765,3.73032 -0.80261,5.592381 -0.34157,1.950797 -0.33777,3.935209 -0.51429,5.901545 -0.31177,2.029602 -0.51121,4.069953 -0.61964,6.119716 -0.18149,2.07851 -0.68042,4.109 -1.0439,6.15898 -0.31928,2.33185 -0.68233,4.65991 -1.24277,6.94681 -0.51721,1.90251 -0.6795,3.86608 -0.77344,5.82707 -0.007,1.7358 -0.37329,3.43945 -0.58878,5.15575 -0.21045,2.23925 -0.22217,4.49086 -0.2281,6.73808 0.009,1.78183 0.008,3.56358 0.007,5.34539 -0.03,2.43843 -0.0178,4.87742 -0.0456,7.31593 -0.0247,2.64377 0.013,5.28757 0.0378,7.9312 -0.009,2.46086 -0.0225,4.92161 -0.0291,7.38252 -0.0173,2.40216 0.0293,4.80411 0.028,7.20621 0.0127,2.03158 -0.002,4.06315 -2.7e-4,6.09474 0.006,1.79212 0.0159,3.58422 0.0211,5.37635 0.004,1.53075 0.004,3.06151 0.004,4.59226 -0.0891,1.57498 0.0737,3.1207 0.29379,4.67624 0.33007,1.15969 0.57809,2.34976 0.97092,3.48985 0,0 -9.81112,5.42309 -9.81112,5.42309 v 0 c -0.42883,-1.20648 -0.65131,-2.47837 -1.03501,-3.70152 -0.23602,-1.60109 -0.52176,-3.17835 -0.39088,-4.80652 2.7e-4,-1.53227 5.3e-4,-3.06454 0.004,-4.59682 0.005,-1.79928 0.0149,-3.59855 0.0211,-5.39783 0.001,-2.03147 -0.0131,-4.06292 -2.7e-4,-6.09439 -0.001,-2.41161 0.0453,-4.82308 0.028,-7.23475 -0.007,-2.45104 -0.0196,-4.90192 -0.029,-7.35291 0.0247,-2.65634 0.0624,-5.31285 0.0373,-7.96933 -0.0286,-2.42166 -0.0167,-4.8438 -0.0514,-7.26535 -0.005,-1.78876 -0.0139,-3.57752 0.013,-5.36622 0.0285,-2.27328 0.0549,-4.54733 0.16938,-6.81825 0.1154,-1.71808 0.54752,-3.38715 0.61149,-5.10525 0.0893,-2.02434 0.20676,-4.05826 0.67867,-6.03641 0.60885,-2.25635 1.09487,-4.54957 1.33281,-6.8781 0.29863,-2.01899 0.73144,-4.01107 1.04907,-6.02707 0.10903,-2.06874 0.26591,-4.13586 0.59029,-6.18361 0.28526,-1.966725 0.15901,-3.974388 0.48809,-5.941531 0.3018,-1.875515 0.58433,-3.739422 0.74803,-5.632617 0.34493,-1.657495 0.73827,-3.296248 1.02638,-4.965549 0.5279,-2.073359 0.90027,-4.182536 1.60366,-6.208318 0.48952,-2.033249 1.2701,-3.998759 1.20406,-6.128308 0.17801,-4.544375 2.21976,-2.382761 9.79965,-6.550869 0.12288,-0.06757 -0.25829,0.09974 -0.49234,0.816446 -0.071,0.217289 -0.099,0.446323 -0.14845,0.669486 -0.49819,1.488694 -1.55327,2.611628 -2.27315,3.995224 -1.19597,2.631194 -2.4533,5.236659 -3.69861,7.844287 -1.23458,2.694175 -2.12116,5.516787 -2.85487,8.386233 -0.7847,2.292845 -1.46134,4.61781 -2.76095,6.682965 -1.16093,2.671471 -1.7089,5.585534 -2.16303,8.448491 -0.25268,2.42226 -0.60727,4.80709 -1.54518,7.07446 -0.58198,1.57924 -1.3906,3.06454 -1.96497,4.65117 -0.52444,1.61802 -0.95064,3.2629 -1.60669,4.83883 -0.70868,1.60724 -1.32861,3.2547 -1.97498,4.88805 -0.45189,1.77946 -0.72812,3.59674 -1.63059,5.23695 -0.62866,2.05848 -1.37315,4.06779 -1.99204,6.12849 -0.26618,0.66406 -0.37448,0.90973 -0.5999,1.55566 -0.0681,0.1952 -0.0199,0.47663 -0.19323,0.58939 -1.31665,0.85669 -7.34977,8.13711 -10.89213,5.52955 -0.91758,-0.99471 -1.16233,-2.25285 -1.85874,-3.38235 -0.85197,-1.16304 -1.69689,-2.33482 -2.71533,-3.36111 -0.95169,-1.22048 -1.92113,-2.44763 -2.68175,-3.79731 -0.77957,-1.19675 -1.646,-2.34865 -2.29248,-3.62265 -0.5062,-1.17481 -1.18195,-2.27255 -1.56756,-3.50046 -0.49054,-1.07493 -0.90821,-2.18036 -1.64277,-3.12241 -0.67077,-1.27146 -1.32454,-2.5471 -2.18245,-3.70695 -0.99777,-1.45048 -1.69531,-3.08768 -2.51923,-4.63918 -0.69475,-1.33212 -1.36312,-2.66599 -2.29353,-3.85995 -1.00896,-1.72747 -1.95367,-3.48896 -2.96714,-5.21426 -0.97635,-1.72459 -1.9403,-3.45173 -2.90385,-5.183686 -0.90609,-1.499385 -1.81555,-2.990336 -2.97792,-4.312636 -1.12734,-1.290051 -2.24935,-2.584038 -3.52113,-3.738899 -0.97057,-1.063302 -1.8803,-2.184776 -2.90519,-3.195577 -3.53489,-4.152151 8.20992,-10.290717 9.67824,-5.599665 0.68375,1.565497 1.0166,3.158112 1.38167,4.822044 0.58704,1.669233 1.31766,3.279357 1.95542,4.928304 0.76775,2.046584 1.31511,4.173905 1.42622,6.366481 0.36009,3.428424 0.65081,6.845974 0.66124,10.299624 0.25067,6.12607 0.41919,12.25278 0.30217,18.38497 -0.11056,6.3807 -0.4889,12.76143 -1.45205,19.07634 -0.36861,2.26625 -0.73318,4.81456 -1.28752,7.05276 -0.99272,4.00819 -2.49414,7.89367 -3.72464,11.82903 -1.91137,5.76413 -3.92184,11.55395 -5.48237,17.42535 -0.15099,0.56809 -0.23551,1.15179 -0.35327,1.72768 0,0 -10.14495,4.71869 -10.14495,4.71869 z"
       inkscape:connector-curvature="0" />
    <path
       style="fill:#0000ff;stroke-width:0.26458332"
       id="path56"
       d="m 23.825624,263.31411 c 0.699447,-1.87547 1.705936,-3.59272 2.776759,-5.27367 1.317606,-1.9699 2.898502,-3.74885 4.384624,-5.59315 1.104535,-1.30837 2.155055,-2.66188 3.322265,-3.91566 1.055828,-0.9796 2.015447,-2.06503 3.107872,-3.00315 3.772448,-2.57101 2.059506,-1.42768 10.931287,-6.2757 0.32471,-0.17744 1.357582,-0.31847 1.698998,-0.41792 0.490059,-0.14276 0.956091,-0.35843 1.440066,-0.52061 1.410894,-0.49549 2.803062,-0.93246 4.291992,-1.13924 1.509273,-0.16631 3.029937,-0.16675 4.546359,-0.17247 1.862465,-0.0235 3.554309,-1.03415 5.325269,-1.57411 2.176354,-1.06061 4.349093,-1.99036 6.713426,-2.54018 1.93295,-0.3781 3.912804,-0.40348 5.875837,-0.42646 1.615901,-0.0567 3.265808,0.1317 4.788937,0.68748 1.451558,0.50374 2.977883,0.70695 4.469279,1.07286 1.357511,0.52706 2.673762,1.16284 4.065357,1.59485 1.426136,0.56933 2.59071,1.56912 3.927292,2.3063 1.782252,1.15004 3.652793,2.15249 5.442727,3.28915 1.82913,0.83782 3.23031,2.29407 4.99726,3.22982 2.16124,0.59029 4.29396,1.27189 6.5324,1.49451 1.38029,-0.11171 2.83532,-0.0113 4.20088,-0.29128 1.21562,-0.24922 2.39504,-0.90515 3.48428,-1.46597 -16.27527,9.61177 -7.90804,4.4398 -4.22161,2.15318 1.60178,-1.00741 3.20453,-2.01783 4.77468,-3.07396 1.52376,-1.03542 2.86519,-2.28555 4.13178,-3.61618 1.39547,-1.52775 2.54689,-3.25124 3.77367,-4.91184 3.56791,-3.73307 8.45435,-6.14779 13.29499,-7.89783 0.24926,-0.0679 0.49498,-0.15056 0.7478,-0.20379 0.57378,-0.12079 1.1736,-0.0969 1.74313,-0.23632 1.43907,-0.35239 2.79133,-1.16597 4.10212,-1.82174 2.73574,-1.30598 5.34471,-2.89414 8.1356,-4.07918 2.55296,-0.86977 5.07975,-1.65404 7.74753,-2.08197 2.28848,-0.24615 4.62346,-0.6555 6.92301,-0.36597 1.63106,0.5202 3.00772,1.59159 4.40949,2.5401 1.7229,1.2078 3.22557,2.69506 4.7437,4.14374 1.39052,1.41494 2.67359,2.93332 4.08713,4.3248 1.33241,1.43823 2.5675,2.90416 3.6282,4.55991 0.78547,1.10932 1.55262,2.21822 2.5457,3.15396 1.15337,1.06739 2.57852,1.76426 3.9417,2.5185 0.9988,0.63316 2.20126,0.75252 3.26059,1.2313 0.48646,0.21986 0.93918,0.50786 1.41195,0.75582 1.09585,0.64408 1.63505,1.87047 2.65069,2.5932 0.8678,0.71704 1.73012,1.41255 2.48911,2.25018 0.75588,0.60968 1.54071,1.20579 2.43368,1.60194 0,0 -9.37887,6.1576 -9.37887,6.1576 v 0 c -0.94467,-0.54143 -1.84906,-1.17632 -2.64166,-1.92472 -0.75289,-0.76796 -1.59839,-1.4249 -2.41795,-2.11886 -0.86796,-0.77754 -1.47331,-1.82838 -2.49832,-2.42335 -1.50756,-0.78704 -3.16195,-1.1919 -4.64888,-2.02686 -1.46434,-0.79084 -2.96088,-1.57799 -4.16235,-2.75197 -0.99931,-1.03898 -1.85588,-2.18176 -2.64051,-3.39027 -0.9963,-1.59719 -2.18639,-2.99531 -3.47353,-4.36421 -1.38571,-1.40532 -2.70372,-2.87064 -4.04529,-4.31749 -1.48987,-1.40972 -2.99511,-2.81575 -4.70606,-3.95866 -1.24479,-0.86545 -2.54081,-1.82507 -4.0706,-2.06458 -2.23133,-0.06 -4.46409,0.17965 -6.66527,0.53172 -2.61106,0.52738 -5.14236,1.34827 -7.61903,2.32736 -2.70044,1.30256 -5.3491,2.71031 -8.03778,4.03695 -1.12286,0.52495 -1.94522,0.95475 -3.12084,1.33388 -1.20851,0.38974 -2.50897,0.44047 -3.66936,0.98877 -3.64717,1.62815 -7.44701,4.24101 7.58141,-4.58392 1.01787,-0.5977 -2.82129,1.48783 -1.79665,1.17808 -1.39531,1.55674 -2.43635,3.39605 -3.78765,4.99369 -1.23289,1.37554 -2.48091,2.76257 -4.02832,3.79109 -1.46161,1.21919 -3.19804,2.09797 -4.76924,3.16345 -4.80156,3.15546 -9.93388,5.79576 -14.82994,8.78623 -2.68989,1.14708 -5.0966,1.4914 -8.0272,1.23611 -2.33689,-0.34407 -4.703811,-0.87647 -6.885337,-1.78979 -1.69672,-1.04855 -3.180842,-2.40537 -4.985996,-3.28648 -1.795495,-1.10579 -3.632494,-2.14504 -5.437934,-3.23421 -1.265597,-0.73445 -2.454254,-1.61914 -3.845838,-2.10931 -1.336376,-0.493 -2.635001,-1.09003 -3.993837,-1.5205 -1.512584,-0.36019 -3.065661,-0.56095 -4.526735,-1.11689 -1.497333,-0.36265 -3.016039,-0.5095 -4.557073,-0.41865 -1.908214,0.0436 -3.830074,0.12015 -5.685512,0.61267 -2.314763,0.66291 -4.433535,1.7579 -6.682351,2.59896 -1.820124,0.62058 -3.597383,1.49192 -5.571246,1.33667 -1.483313,0.0233 -2.975036,0.0507 -4.438007,0.3231 -1.432388,0.31199 -2.79486,0.83288 -4.192236,1.26892 -0.751234,0.24888 -1.530662,0.42817 -2.272273,0.70379 -0.262782,0.0977 -1.013563,0.47529 -0.77302,0.3313 16.555751,-9.90991 11.237034,-6.63761 8.2429,-4.79168 -1.275656,0.69721 -2.135052,1.88769 -3.202614,2.85064 -1.306542,1.11625 -2.2357,2.56153 -3.423708,3.79321 -1.439876,1.85394 -3.019042,3.5984 -4.421347,5.47768 -1.009528,1.62934 -2.118793,3.1887 -2.808919,4.99443 0,0 -10.162833,4.77285 -10.162833,4.77285 z"
       inkscape:connector-curvature="0" />
    <path
       style="fill:#0000ff;stroke-width:0.26458332"
       id="path58"
       d="m 23.170103,63.652016 c 1.728269,-2.017858 3.766658,-3.715859 5.809979,-5.398172 2.320994,-2.142387 4.665207,-4.254016 6.644449,-6.721846 1.741406,-2.461191 3.4772,-4.927412 5.146326,-7.438284 1.072375,-1.608259 2.385237,-3.028481 3.658703,-4.475056 1.416347,-1.405319 2.886694,-2.757864 4.306237,-4.162928 3.430746,-3.587274 6.41613,-4.474998 11.841149,-7.50048 0.404582,-0.225631 0.895332,-0.243464 1.329029,-0.406265 1.687306,-0.667133 3.464964,-0.948486 5.222372,-1.347381 2.69572,-0.313968 5.34561,-0.891934 8.032194,-1.270913 2.002978,-0.212262 4.043497,-0.462514 6.04983,-0.201839 1.719387,0.392835 3.255963,1.20107 4.77796,2.053596 1.104394,0.860763 2.338051,1.4929 3.454736,2.342583 1.255561,1.009563 2.271514,2.256356 3.42248,3.369585 1.137113,1.023025 1.992755,2.293779 3.022206,3.422 1.087004,1.554043 2.802361,2.433854 4.311007,3.521596 2.19525,1.438907 4.03039,3.296226 6.26512,4.677873 3.04467,1.501767 5.68096,3.585755 8.33585,5.667697 1.76951,1.056971 3.53981,3.124732 5.69556,1.933499 3.2889,-2.704468 0.0552,0.0089 -8.39239,4.645974 -0.21594,0.118536 0.36682,-0.328943 0.54687,-0.497064 0.69824,-0.651979 1.2648,-1.336826 1.8319,-2.105409 1.17987,-1.815259 2.31593,-3.657232 3.504,-5.467305 1.12388,-1.507072 2.19,-3.05276 3.26653,-4.594016 0.89767,-1.165958 1.72819,-2.38126 2.60207,-3.56435 1.03912,-1.114589 2.04655,-2.227741 2.99056,-3.430683 2.87179,-4.728548 8.09367,-6.800701 13.20421,-8.96203 -14.67431,8.242303 -10.50424,6.471571 -7.60464,4.041804 1.4781,-1.238591 2.85346,-2.618547 4.25944,-3.937386 1.78045,-1.805675 3.64569,-3.478452 5.69946,-4.963622 4.01919,-2.745566 2.88427,-2.008411 11.47086,-6.535782 0.32458,-0.171139 2.08259,-0.42845 2.43051,-0.505411 0.67717,-0.149795 1.33993,-0.358725 2.01224,-0.528953 1.95588,-0.706977 3.90153,-1.387083 5.949,-1.776159 2.10435,-0.416498 3.35858,-0.237034 5.29893,0.66701 1.42214,0.671059 2.72983,1.609011 3.82844,2.733797 1.2422,1.000831 2.18243,2.258131 3.06484,3.57046 0.94002,1.11617 1.8564,2.236619 2.68481,3.43953 0.84788,1.104297 1.54529,2.346645 2.74365,3.105089 1.3343,1.08666 2.84076,1.983732 4.39962,2.712701 2.70737,0.76212 5.55105,0.823463 8.3448,0.903214 2.70934,0.0035 5.34759,0.767493 8.01709,1.176335 1.35208,0.470524 2.70239,0.935561 4.08367,1.312648 0,0 -9.20323,6.295014 -9.20323,6.295014 v 0 c -1.32763,-0.412652 -2.63032,-0.911976 -3.98831,-1.218835 -2.60428,-0.474657 -5.19795,-1.160767 -7.86493,-1.105567 -2.92274,-0.118221 -5.92593,-0.217114 -8.7009,-1.229053 -1.58708,-0.822716 -3.14644,-1.720754 -4.54615,-2.839328 -1.19565,-0.951828 -2.04113,-2.212599 -2.94312,-3.433069 -0.82875,-1.201804 -1.76729,-2.311305 -2.66935,-3.457435 -0.85593,-1.247575 -1.78787,-2.408 -2.96048,-3.379238 -1.0415,-0.987766 -2.26008,-1.809623 -3.57834,-2.381276 -1.63688,-0.584971 -3.21259,-0.555207 -4.89648,-0.124656 -2.0117,0.484096 -3.92762,1.250727 -5.92013,1.799515 -1.04745,0.255969 -2.12957,0.443389 -3.16138,0.756026 -0.38597,0.116948 -1.4802,0.62407 -1.13817,0.410375 2.48511,-1.552658 11.99696,-7.103179 7.57924,-4.453491 -0.95133,0.679766 -1.99817,1.303005 -2.89337,2.054891 -1.02873,0.864036 -1.88575,1.933707 -2.91705,2.796704 -5.25195,4.94571 -7.7743,7.531133 -15.63238,11.037434 -3.88657,1.863759 -0.56562,0.297926 8.04383,-4.811152 0.22984,-0.136392 -0.49524,0.213067 -0.71065,0.371272 -0.69636,0.511455 -1.09651,1.344371 -1.50455,2.073113 -0.96713,1.157835 -1.67408,2.53083 -2.99336,3.342725 -0.80981,1.236874 -1.69584,2.438847 -2.64863,3.572642 -1.04001,1.568254 -2.10268,3.119414 -3.27731,4.592021 -1.23544,1.793883 -2.43099,3.611417 -3.5166,5.500685 -0.38621,0.571656 -0.71573,1.183396 -1.13996,1.727435 -0.0168,0.02159 -1.04589,1.062125 -1.08342,1.085623 -9.60945,6.016434 -6.43433,4.845746 -10.85515,6.394701 -2.44023,0.134482 -4.23925,-1.568114 -6.13907,-2.881969 -2.62076,-2.07092 -5.27975,-4.050135 -8.274454,-5.563997 -2.247384,-1.412697 -4.161832,-3.237679 -6.392232,-4.677354 -1.585879,-1.116356 -3.329657,-2.084102 -4.482894,-3.690702 -1.022779,-1.111835 -1.857439,-2.377519 -2.9948,-3.379041 -1.081326,-1.106765 -2.105337,-2.264222 -3.327977,-3.225554 -1.113232,-0.773705 -2.315369,-1.404202 -3.395477,-2.227524 -1.394458,-0.795285 -2.865962,-1.478058 -4.478147,-1.674072 -1.957829,-0.06223 -3.914847,0.107302 -5.854285,0.371533 -2.675167,0.398338 -5.339394,0.880422 -8.001825,1.350902 -1.766697,0.381378 -3.503292,0.852093 -5.189366,1.512252 -3.540156,1.278742 -8.793376,4.937287 7.739433,-4.735597 0.200573,-0.117351 -0.410948,0.220223 -0.598728,0.357116 -0.503349,0.366951 -0.74536,0.684297 -1.167765,1.148548 -1.47679,1.317702 -2.766745,2.83169 -4.323966,4.061439 -1.289664,1.438328 -2.590641,2.856511 -3.813136,4.351922 -1.602742,2.592351 -3.518257,4.982832 -5.16846,7.547044 -0.648753,0.892437 -1.197026,1.706594 -1.949844,2.514544 -1.444707,1.550504 -3.172611,2.827277 -4.577496,4.419394 -1.942325,1.675829 -4.012266,3.198471 -5.727171,5.12772 0,0 -10.323667,4.410663 -10.323667,4.410663 z"
       inkscape:connector-curvature="0" />
  </g>
</svg>
