<?xml version="1.0" encoding="UTF-8" standalone="no"?>
<!-- Created with Inkscape (http://www.inkscape.org/) -->

<svg
   xmlns:dc="http://purl.org/dc/elements/1.1/"
   xmlns:cc="http://creativecommons.org/ns#"
   xmlns:rdf="http://www.w3.org/1999/02/22-rdf-syntax-ns#"
   xmlns:svg="http://www.w3.org/2000/svg"
   xmlns="http://www.w3.org/2000/svg"
   xmlns:sodipodi="http://sodipodi.sourceforge.net/DTD/sodipodi-0.dtd"
   xmlns:inkscape="http://www.inkscape.org/namespaces/inkscape"
   width="210mm"
   height="297mm"
   viewBox="0 0 210 297"
   version="1.1"
   id="svg8"
   inkscape:version="0.92.3 (2405546, 2018-03-11)"
   sodipodi:docname="logo.svg">
  <defs
     id="defs2" />
  <sodipodi:namedview
     id="base"
     pagecolor="#ffffff"
     bordercolor="#666666"
     borderopacity="1.0"
     inkscape:pageopacity="0.0"
     inkscape:pageshadow="2"
     inkscape:zoom="0.35"
     inkscape:cx="400"
     inkscape:cy="560"
     inkscape:document-units="mm"
     inkscape:current-layer="layer1"
     showgrid="false"
     inkscape:measure-start="85.7143,300"
     inkscape:measure-end="734.286,314.286"
     inkscape:window-width="1366"
     inkscape:window-height="705"
     inkscape:window-x="-8"
     inkscape:window-y="-8"
     inkscape:window-maximized="1" />
  <metadata
     id="metadata5">
    <rdf:RDF>
      <cc:Work
         rdf:about="">
        <dc:format>image/svg+xml</dc:format>
        <dc:type
           rdf:resource="http://purl.org/dc/dcmitype/StillImage" />
        <dc:title></dc:title>
      </cc:Work>
    </rdf:RDF>
  </metadata>
  <g
     inkscape:label="Layer 1"
     inkscape:groupmode="layer"
     id="layer1">
    <rect
       style="fill:#f9f9f9;stroke-width:0.26458332"
       id="rect3715"
       width="186.72025"
       height="275.16669"
       x="9.8273811"
       y="8.2261906" />
    <ellipse
       style="fill:#000000;stroke-width:0.26458332"
       id="path3719"
       cx="51.026787"
       cy="47.913689"
       rx="26.080357"
       ry="23.056545" />
    <ellipse
       style="fill:#000000;stroke-width:0.26458332"
       id="path3721"
       cx="54.42857"
       cy="39.598213"
       rx="3.0238097"
       ry="7.9375" />
    <rect
       style="fill:#000000;stroke-width:0.26458332"
       id="rect3723"
       width="65.011902"
       height="86.178581"
       x="19.654762"
       y="76.261909" />
    <path
       style="fill:#000000;stroke-width:0.26458332"
       id="path3730"
       d="m 22.556797,192.40611 c 4.210432,0.1045 8.423149,0.11094 12.634728,0.12829 1.049893,0.006 2.100006,-0.005 3.149679,0.0173 4.125651,0.0873 8.21858,0.37297 12.349903,0.25181 4.614651,-0.13533 8.055004,-0.454 12.739365,-0.80467 15.844668,-1.4524 31.296983,-5.50651 46.642528,-9.53764 5.68605,-0.90531 11.49699,-1.21204 17.16803,-0.0477 1.20157,0.24669 3.72389,0.98072 4.95544,1.32878 0.66424,0.18761 1.33781,0.3449 1.99273,0.56282 0.44463,0.14795 3.80921,1.47451 4.18632,1.61382 2.08028,0.76846 4.17186,1.34261 6.32611,1.85658 2.70849,0.50638 5.30238,1.45685 7.98343,2.06488 1.45146,0.56135 2.96203,0.84905 4.50521,0.98548 1.67456,0.0945 3.26302,-0.01 4.90595,0.36121 2.65727,0.42548 5.24566,1.12838 7.82305,1.88574 1.95138,0.5788 3.8887,1.14766 5.90774,1.43429 1.5646,0.18509 3.14231,0.18583 4.71538,0.1896 1.71913,0.0791 3.40504,-0.056 5.10804,-0.25776 1.45654,-0.0768 2.89088,0.19114 4.26408,0.65165 0,0 -9.21272,6.29911 -9.21272,6.29911 v 0 c -1.30503,-0.32269 -2.63026,-0.49556 -3.97512,-0.30913 -1.74413,0.19647 -3.48947,0.22905 -5.24386,0.18591 -1.60334,-0.0248 -3.21222,-0.07 -4.79579,-0.34707 -2.01689,-0.38598 -3.97229,-0.99567 -5.93858,-1.5811 -2.53358,-0.76549 -5.10525,-1.4005 -7.73087,-1.76176 -1.65195,-0.12645 -3.31104,-0.0872 -4.95916,-0.27514 -1.56121,-0.22101 -3.06804,-0.63202 -4.56463,-1.12596 -2.59965,-0.7291 -5.14681,-1.63991 -7.79593,-2.19385 -4.23994,-1.13809 -8.29517,-2.76986 -12.47483,-4.09587 -1.34539,-0.39326 -3.41683,-1.02527 -4.76729,-1.30591 -5.41322,-1.12496 -10.95741,-0.90903 -16.38683,0.009 -15.380905,3.82522 -30.828788,7.72622 -46.633827,9.32108 -5.139973,0.46688 -8.133371,0.81257 -13.148767,1.01468 -5.274411,0.21255 -10.540897,-0.15849 -15.815485,-0.0539 -4.329312,0.0176 -8.659611,0.026 -12.98786,0.12828 0,0 9.073836,-6.59253 9.073836,-6.59253 z"
       inkscape:connector-curvature="0" />
    <path
       style="fill:#000000;stroke-width:0.26458332"
       id="path3732"
       d="m 26.336153,217.06822 c 1.72002,-0.35885 3.370041,-1.02003 5.086631,-1.38619 1.111668,-0.23713 2.243471,-0.36821 3.361489,-0.57332 2.705865,-0.49639 9.671889,-1.88292 11.879313,-2.31852 18.162857,-3.35864 36.593181,-4.6985 55.005194,-5.76241 8.63444,-0.45561 17.30752,-0.92662 25.92957,-0.066 1.79131,0.34847 3.53431,0.88516 5.23723,1.52511 0.56956,0.30711 1.27236,0.21324 1.86406,0.40956 0.77951,0.25864 1.4939,0.84371 2.19536,1.25746 1.43788,0.71328 3.00479,1.10262 4.50644,1.66482 1.74335,0.63958 3.50101,1.21964 5.25203,1.83855 0.2813,0.0724 0.55541,0.25103 0.8439,0.21719 0.24928,-0.0292 0.4263,-0.26516 0.64312,-0.39157 0.25412,-0.14815 0.50972,-0.29396 0.76949,-0.43197 0.86817,-0.46125 1.71044,-0.80049 2.65095,-1.08144 2.15707,-0.51911 4.37312,-0.58007 6.57894,-0.63367 2.00725,-0.0432 4.01496,-0.0255 6.02246,-0.0229 1.6715,0.001 3.34301,2.7e-4 5.01451,-2.5e-4 1.66701,-1.8e-4 3.33397,0.007 5.00099,0.006 1.65223,-0.0685 3.25652,-0.0167 4.87916,0.28326 2.13776,0.24725 4.26993,0.35265 6.39125,0.72018 0.33136,0.0486 0.66271,0.0973 0.99407,0.1459 0,0 -9.11096,6.41337 -9.11096,6.41337 v 0 c -0.3362,-0.0521 -0.67241,-0.10409 -1.00862,-0.15613 -2.12914,-0.33841 -4.28513,-0.40051 -6.42074,-0.69388 -1.57931,-0.21827 -3.17031,-0.13118 -4.76103,-0.14704 -1.67193,-0.002 -3.3438,0.006 -5.01571,0.004 -1.66297,-0.004 -3.32592,-0.0108 -4.98886,-0.0211 -1.98975,-0.009 -3.98003,-0.0162 -5.96935,0.0322 -2.15731,0.0856 -4.33915,0.21853 -6.39886,0.9232 -1.83539,0.74308 -3.3439,1.91954 -5.37393,1.08541 -1.73928,-0.6376 -3.50249,-1.20522 -5.24345,-1.83839 -1.57364,-0.52828 -3.19072,-0.98868 -4.63242,-1.83164 -1.29869,-0.74854 -2.5541,-1.07788 -3.98222,-1.49238 -1.58875,-0.59796 -3.23242,-1.07916 -4.89091,-1.4351 -8.22215,-1.09607 -16.53372,-0.86357 -24.803522,-0.53287 -18.463615,0.85956 -36.954738,2.27531 -55.091414,6.01589 -7.129286,1.57602 -14.316762,2.94462 -21.306336,5.0747 0,0 8.892175,-6.79947 8.892175,-6.79947 z"
       inkscape:connector-curvature="0" />
    <path
       style="fill:#000000;stroke-width:0.26458332"
       id="path3734"
       d="m 27.175806,237.76844 c 5.331637,0.29795 10.605762,-0.67292 15.871632,-1.34525 16.742989,-1.79724 33.509177,-3.29532 50.339071,-3.9813 4.406744,-0.17961 8.817141,-0.25411 13.225721,-0.38117 10.62149,-0.28487 21.24699,-0.24683 31.87063,-0.34187 2.44199,-0.0219 4.88702,0.0307 7.32556,-0.10083 3.99343,-0.21535 6.60132,-0.73775 10.44487,-1.37008 3.13707,-0.17666 6.23732,-1.81252 9.42049,-1.55241 0.70488,0.0576 1.13324,0.28226 1.75798,0.53927 1.0547,0.68427 2.32719,0.66948 3.46598,1.07999 0.9492,0.78973 1.98614,1.1294 3.19046,1.27308 1.81239,0.16689 3.63513,0.15127 5.45335,0.16093 1.75786,-0.11422 3.57813,0.2113 5.3063,-0.1703 0,0 -8.97439,6.6939 -8.97439,6.6939 v 0 c -1.7833,0.0702 -3.56932,0.01 -5.35359,0.0237 -1.8685,-0.01 -3.7494,-0.0131 -5.6018,-0.28282 -1.19759,-0.26385 -2.22661,-0.77299 -3.28791,-1.36634 -1.20023,-0.27008 -2.36929,-0.5886 -3.47654,-1.14257 -3.20746,-0.91295 -7.03007,0.92041 -10.25549,1.00245 -4.02515,0.52022 -5.89682,0.8578 -10.12704,0.95169 -2.3586,0.0523 -4.71811,-0.0515 -7.077,-0.0884 -10.38481,-0.16271 -20.77059,-0.36233 -31.157063,-0.1377 -4.394441,0.12674 -8.791483,0.18294 -13.18332,0.38024 -17.28466,0.77651 -34.455896,2.75332 -51.599202,5.01553 -5.51706,0.85228 -11.031569,1.84856 -16.638274,1.72245 0,0 9.059575,-6.58216 9.059575,-6.58216 z"
       inkscape:connector-curvature="0" />
    <path
       style="fill:#000000;stroke-width:0.26458332"
       id="path3736"
       d="m 38.555218,256.81457 c 3.666977,0.64127 7.347225,0.42598 11.035032,0.18029 8.561758,-0.30718 17.05742,-1.56011 25.604851,-2.07505 2.325915,-0.14013 4.65663,-0.18409 6.984942,-0.27613 11.223812,-0.19268 22.445317,-0.48841 33.666967,-0.77546 4.56112,-0.12542 9.12393,-0.17901 13.68661,-0.14869 4.73799,0.0408 9.47611,0.0137 14.21415,0.005 2.83927,0.11311 5.69858,-0.14888 8.53598,-0.003 0.91251,0.0468 3.20052,0.36182 4.12234,0.4817 3.90572,0.49006 7.78251,1.15216 11.70544,1.50085 1.75549,-0.11309 3.58872,0.0358 5.33096,-0.27004 0.2836,-0.0498 1.96084,-0.57192 2.24073,-0.65753 1.79567,-0.61009 3.65434,-0.92735 5.53895,-1.07259 1.05318,-0.0504 0.52915,-0.0308 1.57205,-0.0592 0,0 -9.02531,6.61391 -9.02531,6.61391 v 0 c -1.01637,0.056 -0.50684,0.0206 -1.52859,0.10649 -1.82632,0.22003 -3.60905,0.64047 -5.36702,1.18291 -2.52957,0.62835 -5.13641,0.71682 -7.73361,0.54078 -3.904,-0.42242 -7.76255,-1.15413 -11.6683,-1.56205 -4.17436,-0.49828 -8.35677,-0.40493 -12.55563,-0.38547 -4.73827,-0.0113 -9.4766,-0.0436 -14.21485,-0.004 -4.48488,0.0327 -8.96994,0.003 -13.45489,-0.003 -11.037282,-0.003 -22.074029,0.11486 -33.107781,0.40758 -2.339412,0.1177 -4.681707,0.18779 -7.018237,0.35311 -8.758523,0.61972 -17.452091,1.98129 -26.218814,2.50777 -3.836482,0.28985 -7.659724,0.40234 -11.485798,-0.11969 0,0 9.139828,-6.46837 9.139828,-6.46837 z"
       inkscape:connector-curvature="0" />
    <path
       style="fill:#000000;stroke-width:0.26458332"
       id="path3738"
       d="m 33.848352,276.91868 c 4.440232,-0.97187 8.979289,-1.27159 13.496208,-1.66309 4.554886,-0.24723 9.129778,-0.63209 13.695891,-0.55592 2.271501,0.0379 4.539118,0.2041 6.807578,0.32758 30.83759,1.67836 -15.25012,-0.71368 18.074333,0.99751 3.307855,0.14383 6.61402,0.33398 9.923563,0.43146 3.321667,0.0979 6.646185,0.0665 9.968125,0.15454 3.15909,0.0837 6.31706,0.21137 9.47373,0.36071 2.8528,0.13496 5.69835,0.43793 8.55383,0.49212 5.4731,0.10385 7.86707,-0.26088 13.12625,-0.76256 5.68326,-0.5833 11.22221,-1.98929 16.81753,-3.06808 1.6476,-0.32845 3.32527,-0.36353 4.99834,-0.36533 1.45795,0.008 2.91587,0.0201 4.37383,0.0262 1.50584,0.006 3.0117,0.006 4.51755,0.006 2.37499,0.01 4.76412,0.25371 7.10658,0.64789 1.90575,0.39737 3.82628,0.68476 5.76863,0.80944 1.24691,-0.0212 2.43205,0.079 3.64206,0.36385 0,0 -9.2049,6.40625 -9.2049,6.40625 v 0 c -1.17088,-0.20436 -2.3558,-0.16531 -3.53773,-0.27284 -1.92911,-0.19642 -3.8283,-0.56459 -5.73103,-0.93244 -2.35073,-0.33086 -4.72292,-0.51197 -7.09833,-0.44411 -1.50731,0 -3.01463,-0.003 -4.52193,-0.008 -1.4564,-0.007 -2.91288,-0.0212 -4.36928,-0.008 -1.60606,0.0336 -3.20864,0.14489 -4.78933,0.4494 -5.36663,0.9522 -10.72238,2.00821 -16.16524,2.44419 -5.60184,0.36454 -6.91821,0.58433 -12.80343,0.35123 -2.80185,-0.11099 -5.59228,-0.42621 -8.39201,-0.5816 -11.806484,-0.65527 -7.19711,-0.23625 -19.357446,-0.57664 -3.332438,-0.0933 -6.662494,-0.25799 -9.993741,-0.38698 -13.152578,-0.54353 -26.354939,-1.39017 -39.481516,0.0654 -4.656072,0.47003 -9.312479,0.93278 -13.876491,2.01226 0,0 8.978376,-6.71986 8.978376,-6.71986 z"
       inkscape:connector-curvature="0" />
  </g>
</svg>
